<svg width="256" height="76" viewBox="0 0 256 76" fill="none" xmlns="http://www.w3.org/2000/svg">
<path d="M20.56 75.84C16.9867 75.84 13.8933 75.2534 11.28 74.08C8.72001 72.96 6.64001 71.4934 5.04001 69.68C3.44001 67.92 2.29335 66.1067 1.60001 64.24L9.60001 60.88C10.4533 63.0134 11.8133 64.7467 13.68 66.08C15.6 67.4667 17.8933 68.16 20.56 68.16C24.3467 68.16 27.3067 67.04 29.44 64.8C31.5733 62.56 32.64 59.3867 32.64 55.28V51.36H32.16C30.88 53.2267 29.12 54.7467 26.88 55.92C24.64 57.0934 22.0533 57.68 19.12 57.68C15.6533 57.68 12.4533 56.8 9.52001 55.04C6.64001 53.28 4.32001 50.8267 2.56001 47.68C0.853346 44.48 1.2219e-05 40.7467 1.2219e-05 36.48C1.2219e-05 32.16 0.853346 28.4267 2.56001 25.28C4.32001 22.08 6.64001 19.6 9.52001 17.84C12.4533 16.08 15.6533 15.2 19.12 15.2C22.0533 15.2 24.64 15.7867 26.88 16.96C29.12 18.08 30.88 19.6267 32.16 21.6H32.64V16.48H40.88V55.12C40.88 59.5467 40 63.3067 38.24 66.4C36.5333 69.4934 34.16 71.84 31.12 73.44C28.08 75.04 24.56 75.84 20.56 75.84ZM20.64 49.84C22.7733 49.84 24.7467 49.3334 26.56 48.32C28.4267 47.2534 29.8933 45.7334 30.96 43.76C32.08 41.7334 32.64 39.3067 32.64 36.48C32.64 33.4934 32.08 31.0134 30.96 29.04C29.8933 27.0667 28.4267 25.5734 26.56 24.56C24.7467 23.5467 22.7733 23.04 20.64 23.04C18.5067 23.04 16.5067 23.5467 14.64 24.56C12.8267 25.5734 11.36 27.0934 10.24 29.12C9.12001 31.0934 8.56001 33.5467 8.56001 36.48C8.56001 39.36 9.12001 41.8134 10.24 43.84C11.36 45.8134 12.8267 47.3067 14.64 48.32C16.5067 49.3334 18.5067 49.84 20.64 49.84ZM70.0319 58.56C65.8186 58.56 62.1119 57.6 58.9119 55.68C55.7119 53.76 53.2052 51.1734 51.3919 47.92C49.5786 44.6134 48.6719 40.9334 48.6719 36.88C48.6719 32.8267 49.5786 29.1734 51.3919 25.92C53.2052 22.6134 55.7119 20 58.9119 18.08C62.1119 16.16 65.8186 15.2 70.0319 15.2C74.1919 15.2 77.8719 16.1867 81.0719 18.16C84.2719 20.08 86.7786 22.6667 88.5919 25.92C90.4052 29.1734 91.3119 32.8267 91.3119 36.88C91.3119 40.9334 90.4052 44.6134 88.5919 47.92C86.7786 51.1734 84.2719 53.76 81.0719 55.68C77.8719 57.6 74.1919 58.56 70.0319 58.56ZM70.0319 50.64C72.2719 50.64 74.3519 50.1067 76.2719 49.04C78.1919 47.92 79.7386 46.3467 80.9119 44.32C82.1386 42.24 82.7519 39.76 82.7519 36.88C82.7519 34 82.1386 31.5467 80.9119 29.52C79.7386 27.44 78.1919 25.8667 76.2719 24.8C74.3519 23.68 72.2719 23.12 70.0319 23.12C67.7919 23.12 65.6852 23.68 63.7119 24.8C61.7919 25.8667 60.2186 27.44 58.9919 29.52C57.8186 31.5467 57.2319 34 57.2319 36.88C57.2319 39.76 57.8186 42.24 58.9919 44.32C60.2186 46.3467 61.8186 47.92 63.7919 49.04C65.7652 50.1067 67.8452 50.64 70.0319 50.64ZM116.475 58.56C112.795 58.56 109.462 57.6267 106.475 55.76C103.488 53.8934 101.142 51.3334 99.435 48.08C97.7283 44.8267 96.875 41.0934 96.875 36.88C96.875 32.6667 97.7283 28.9334 99.435 25.68C101.142 22.4267 103.488 19.8667 106.475 18C109.462 16.1334 112.795 15.2 116.475 15.2C118.608 15.2 120.528 15.52 122.235 16.16C123.942 16.8 125.408 17.6534 126.635 18.72C127.915 19.7334 128.902 20.8267 129.595 22H130.075L129.595 16.32V2.76566e-05H138.155V57.28H130.075V51.84H129.595C128.902 52.96 127.915 54.0534 126.635 55.12C125.408 56.1334 123.942 56.96 122.235 57.6C120.528 58.24 118.608 58.56 116.475 58.56ZM117.755 50.64C119.888 50.64 121.888 50.08 123.755 48.96C125.675 47.84 127.195 46.2667 128.315 44.24C129.488 42.16 130.075 39.7067 130.075 36.88C130.075 34.0534 129.488 31.6267 128.315 29.6C127.195 27.52 125.675 25.92 123.755 24.8C121.888 23.68 119.888 23.12 117.755 23.12C115.622 23.12 113.622 23.68 111.755 24.8C109.888 25.92 108.368 27.52 107.195 29.6C106.022 31.6267 105.435 34.0534 105.435 36.88C105.435 39.6534 106.022 42.08 107.195 44.16C108.368 46.24 109.888 47.84 111.755 48.96C113.622 50.08 115.622 50.64 117.755 50.64ZM161.136 58.56C158.149 58.56 155.536 57.9734 153.296 56.8C151.056 55.6267 149.269 54.0267 147.936 52C146.656 49.92 146.016 47.5467 146.016 44.88C146.016 41.9467 146.762 39.4667 148.256 37.44C149.802 35.4134 151.829 33.8667 154.336 32.8C156.896 31.7334 159.722 31.2 162.816 31.2C164.576 31.2 166.176 31.3334 167.616 31.6C169.056 31.8134 170.336 32.08 171.456 32.4C172.576 32.72 173.456 33.0667 174.096 33.44V31.28C174.096 28.6134 173.136 26.48 171.216 24.88C169.296 23.28 166.816 22.48 163.776 22.48C161.696 22.48 159.722 22.96 157.856 23.92C155.989 24.8267 154.469 26.08 153.296 27.68L147.456 23.12C148.629 21.4667 150.042 20.0534 151.696 18.88C153.402 17.7067 155.296 16.8 157.376 16.16C159.456 15.52 161.669 15.2 164.016 15.2C169.882 15.2 174.416 16.6667 177.616 19.6C180.816 22.48 182.416 26.5334 182.416 31.76V57.28H174.096V52.24H173.616C172.869 53.3067 171.882 54.32 170.656 55.28C169.482 56.24 168.096 57.0134 166.496 57.6C164.896 58.24 163.109 58.56 161.136 58.56ZM162.656 51.52C164.896 51.52 166.869 50.9867 168.576 49.92C170.282 48.8534 171.616 47.4667 172.576 45.76C173.589 44 174.096 42.1067 174.096 40.08C172.869 39.3867 171.429 38.8267 169.776 38.4C168.122 37.92 166.336 37.68 164.416 37.68C160.949 37.68 158.469 38.3734 156.976 39.76C155.482 41.1467 154.736 42.88 154.736 44.96C154.736 46.88 155.429 48.4534 156.816 49.68C158.256 50.9067 160.202 51.52 162.656 51.52ZM187.638 24V16.48H195.238V24H187.638ZM207.238 57.92C203.451 57.92 200.438 56.8 198.198 54.56C195.958 52.32 194.838 49.28 194.838 45.44V4.96003H203.478V43.6C203.478 45.7334 203.904 47.3067 204.758 48.32C205.611 49.3334 206.971 49.84 208.838 49.84C209.691 49.84 210.491 49.7334 211.238 49.52C211.984 49.2534 212.811 48.8534 213.718 48.32V56.72C212.704 57.0934 211.664 57.3867 210.598 57.6C209.531 57.8134 208.411 57.92 207.238 57.92ZM202.998 24V16.48H213.398V24H202.998ZM234.261 58.56C231.274 58.56 228.661 57.9734 226.421 56.8C224.181 55.6267 222.394 54.0267 221.061 52C219.781 49.92 219.141 47.5467 219.141 44.88C219.141 41.9467 219.887 39.4667 221.381 37.44C222.927 35.4134 224.954 33.8667 227.461 32.8C230.021 31.7334 232.847 31.2 235.941 31.2C237.701 31.2 239.301 31.3334 240.741 31.6C242.181 31.8134 243.461 32.08 244.581 32.4C245.701 32.72 246.581 33.0667 247.221 33.44V31.28C247.221 28.6134 246.261 26.48 244.341 24.88C242.421 23.28 239.941 22.48 236.901 22.48C234.821 22.48 232.847 22.96 230.981 23.92C229.114 24.8267 227.594 26.08 226.421 27.68L220.581 23.12C221.754 21.4667 223.167 20.0534 224.821 18.88C226.527 17.7067 228.421 16.8 230.501 16.16C232.581 15.52 234.794 15.2 237.141 15.2C243.007 15.2 247.541 16.6667 250.741 19.6C253.941 22.48 255.541 26.5334 255.541 31.76V57.28H247.221V52.24H246.741C245.994 53.3067 245.007 54.32 243.781 55.28C242.607 56.24 241.221 57.0134 239.621 57.6C238.021 58.24 236.234 58.56 234.261 58.56ZM235.781 51.52C238.021 51.52 239.994 50.9867 241.701 49.92C243.407 48.8534 244.741 47.4667 245.701 45.76C246.714 44 247.221 42.1067 247.221 40.08C245.994 39.3867 244.554 38.8267 242.901 38.4C241.247 37.92 239.461 37.68 237.541 37.68C234.074 37.68 231.594 38.3734 230.101 39.76C228.607 41.1467 227.861 42.88 227.861 44.96C227.861 46.88 228.554 48.4534 229.941 49.68C231.381 50.9067 233.327 51.52 235.781 51.52Z" fill="#212433"/>
</svg>
