<svg width="321.401" height="94.8" viewBox="0 0 321.401 94.8" xmlns="http://www.w3.org/2000/svg"><g id="svgGroup" stroke-linecap="round" fill-rule="evenodd" font-size="9pt" stroke="#000000" stroke-width="0.5mm" fill="#000000" style="stroke:#000000;stroke-width:0.5mm;fill:#000000"><path d="M 2.001 80.3 L 12.001 76.1 Q 13.601 80.1 17.151 82.65 Q 20.701 85.2 25.701 85.2 Q 32.801 85.2 36.801 81 Q 40.801 76.8 40.801 69.1 L 40.801 64.2 L 40.201 64.2 Q 37.801 67.7 33.601 69.9 Q 29.401 72.1 23.901 72.1 Q 17.401 72.1 11.951 68.8 Q 6.501 65.5 3.251 59.55 Q 0.001 53.6 0.001 45.6 Q 0.001 37.5 3.251 31.55 Q 6.501 25.6 11.951 22.3 Q 17.401 19 23.901 19 Q 29.401 19 33.601 21.15 Q 37.801 23.3 40.201 27 L 40.801 27 L 40.801 20.6 L 51.101 20.6 L 51.101 68.9 Q 51.101 77.2 47.851 83 Q 44.601 88.8 38.901 91.8 Q 33.201 94.8 25.701 94.8 Q 19.001 94.8 14.151 92.65 Q 9.301 90.5 6.301 87.15 Q 3.301 83.8 2.001 80.3 Z M 162.001 27.5 L 162.601 27.5 L 162.001 20.4 L 162.001 0 L 172.701 0 L 172.701 71.6 L 162.601 71.6 L 162.601 64.8 L 162.001 64.8 Q 160.701 66.9 158.351 68.85 Q 156.001 70.8 152.801 72 Q 149.601 73.2 145.601 73.2 Q 138.701 73.2 133.101 69.7 Q 127.501 66.2 124.301 60.1 Q 121.101 54 121.101 46.1 Q 121.101 38.2 124.301 32.1 Q 127.501 26 133.101 22.5 Q 138.701 19 145.601 19 Q 149.601 19 152.801 20.2 Q 156.001 21.4 158.351 23.35 Q 160.701 25.3 162.001 27.5 Z M 217.601 41.8 L 217.601 39.1 Q 217.601 34.1 214.001 31.1 Q 210.401 28.1 204.701 28.1 Q 200.801 28.1 197.301 29.85 Q 193.801 31.6 191.601 34.6 L 184.301 28.9 Q 186.501 25.8 189.651 23.6 Q 192.801 21.4 196.701 20.2 Q 200.601 19 205.001 19 Q 216.001 19 222.001 24.45 Q 228.001 29.9 228.001 39.7 L 228.001 71.6 L 217.601 71.6 L 217.601 65.3 L 217.001 65.3 Q 215.601 67.3 213.351 69.1 Q 211.101 70.9 208.101 72.05 Q 205.101 73.2 201.401 73.2 Q 195.801 73.2 191.601 71 Q 187.401 68.8 184.951 64.95 Q 182.501 61.1 182.501 56.1 Q 182.501 50.6 185.351 46.8 Q 188.201 43 192.951 41 Q 197.701 39 203.501 39 Q 206.801 39 209.501 39.45 Q 212.201 39.9 214.301 40.5 Q 216.401 41.1 217.601 41.8 Z M 311.001 41.8 L 311.001 39.1 Q 311.001 34.1 307.401 31.1 Q 303.801 28.1 298.101 28.1 Q 294.201 28.1 290.701 29.85 Q 287.201 31.6 285.001 34.6 L 277.701 28.9 Q 279.901 25.8 283.051 23.6 Q 286.201 21.4 290.101 20.2 Q 294.001 19 298.401 19 Q 309.401 19 315.401 24.45 Q 321.401 29.9 321.401 39.7 L 321.401 71.6 L 311.001 71.6 L 311.001 65.3 L 310.401 65.3 Q 309.001 67.3 306.751 69.1 Q 304.501 70.9 301.501 72.05 Q 298.501 73.2 294.801 73.2 Q 289.201 73.2 285.001 71 Q 280.801 68.8 278.351 64.95 Q 275.901 61.1 275.901 56.1 Q 275.901 50.6 278.751 46.8 Q 281.601 43 286.351 41 Q 291.101 39 296.901 39 Q 300.201 39 302.901 39.45 Q 305.601 39.9 307.701 40.5 Q 309.801 41.1 311.001 41.8 Z M 245.001 56.8 L 245.001 6.2 L 255.801 6.2 L 255.801 54.5 Q 255.801 58.5 257.401 60.4 Q 259.001 62.3 262.501 62.3 Q 264.101 62.3 265.501 61.85 Q 266.901 61.4 268.601 60.4 L 268.601 70.9 Q 266.701 71.6 264.701 72 Q 262.701 72.4 260.501 72.4 Q 253.401 72.4 249.201 68.2 Q 245.001 64 245.001 56.8 Z M 87.501 73.2 Q 79.601 73.2 73.601 69.6 Q 67.601 66 64.201 59.85 Q 60.801 53.7 60.801 46.1 Q 60.801 38.5 64.201 32.35 Q 67.601 26.2 73.601 22.6 Q 79.601 19 87.501 19 Q 95.301 19 101.301 22.65 Q 107.301 26.3 110.701 32.4 Q 114.101 38.5 114.101 46.1 Q 114.101 53.7 110.701 59.85 Q 107.301 66 101.301 69.6 Q 95.301 73.2 87.501 73.2 Z M 87.501 63.3 Q 91.701 63.3 95.301 61.25 Q 98.901 59.2 101.151 55.35 Q 103.401 51.5 103.401 46.1 Q 103.401 40.7 101.151 36.85 Q 98.901 33 95.301 30.95 Q 91.701 28.9 87.501 28.9 Q 83.301 28.9 79.651 30.95 Q 76.001 33 73.751 36.85 Q 71.501 40.7 71.501 46.1 Q 71.501 51.5 73.751 55.35 Q 76.001 59.2 79.701 61.25 Q 83.401 63.3 87.501 63.3 Z M 147.201 63.3 Q 151.201 63.3 154.751 61.2 Q 158.301 59.1 160.451 55.25 Q 162.601 51.4 162.601 46.1 Q 162.601 40.8 160.451 36.95 Q 158.301 33.1 154.751 31 Q 151.201 28.9 147.201 28.9 Q 143.201 28.9 139.701 31 Q 136.201 33.1 134.001 36.95 Q 131.801 40.8 131.801 46.1 Q 131.801 51.3 134.001 55.2 Q 136.201 59.1 139.701 61.2 Q 143.201 63.3 147.201 63.3 Z M 25.801 62.3 Q 29.801 62.3 33.251 60.35 Q 36.701 58.4 38.751 54.65 Q 40.801 50.9 40.801 45.6 Q 40.801 40 38.751 36.3 Q 36.701 32.6 33.251 30.7 Q 29.801 28.8 25.801 28.8 Q 21.801 28.8 18.351 30.7 Q 14.901 32.6 12.801 36.35 Q 10.701 40.1 10.701 45.6 Q 10.701 51 12.801 54.75 Q 14.901 58.5 18.351 60.4 Q 21.801 62.3 25.801 62.3 Z M 203.301 64.4 Q 207.501 64.4 210.701 62.4 Q 213.901 60.4 215.751 57.15 Q 217.601 53.9 217.601 50.1 Q 215.301 48.8 212.201 47.95 Q 209.101 47.1 205.501 47.1 Q 199.001 47.1 196.201 49.7 Q 193.401 52.3 193.401 56.2 Q 193.401 59.8 196.051 62.1 Q 198.701 64.4 203.301 64.4 Z M 296.701 64.4 Q 300.901 64.4 304.101 62.4 Q 307.301 60.4 309.151 57.15 Q 311.001 53.9 311.001 50.1 Q 308.701 48.8 305.601 47.95 Q 302.501 47.1 298.901 47.1 Q 292.401 47.1 289.601 49.7 Q 286.801 52.3 286.801 56.2 Q 286.801 59.8 289.451 62.1 Q 292.101 64.4 296.701 64.4 Z M 268.201 30 L 255.201 30 L 255.201 20.6 L 268.201 20.6 L 268.201 30 Z M 245.501 30 L 236.001 30 L 236.001 20.6 L 245.501 20.6 L 245.501 30 Z" vector-effect="non-scaling-stroke"/></g></svg>
